/* XPM */
static char * hero_up_xpm[] = {
"32 32 23 1",
" 	c None",
".	c #000000",
"+	c #8D7D56",
"@	c #C2AE6D",
"#	c #DFD796",
"$	c #F2F0D1",
"%	c #7A6843",
"&	c #DDBD9C",
"*	c #EEDAB3",
"=	c #CA9E73",
"-	c #313233",
";	c #323234",
">	c #444444",
",	c #757677",
"'	c #545456",
")	c #B5B8B9",
"!	c #6D6D6E",
"~	c #969798",
"{	c #D7DADB",
"]	c #B99BAA",
"^	c #683836",
"/	c #6F5365",
"(	c #FFFFFF",
"                                ",
"                                ",
"            +++++++++           ",
"          ++@@#####@@++         ",
"         +@##$#####$##@+        ",
"        +@#$$#######$$#@+       ",
"       +@##$$#######$$##@+      ",
"       +####$$#####$$####+      ",
"      +@######$$$$$######@+     ",
"      +###################+     ",
"    %%@######@#####@######@%%   ",
"   %&*=%###@##@###@##@###%=*&%  ",
"    %&*&@###@@+@@@+@@###@&*&%   ",
"     %**@@##@+#####+@##@@**%    ",
"      %=@#@@+##$$$##+@@#@=%     ",
"       %@@#@+@#####@+@#@+%      ",
"        +@@@+@@###@@+@@@+       ",
"         +++@+@@@@@+@+++        ",
"        -;+@@@+++++@@@+;-       ",
"       -;>>++@+@@@+@++>;,-      ",
"      -;>>>>>+++++++>>';),-     ",
"       ;>>>>>>>>>>>>>'!';~-     ",
"      ;>>>>'>>''''>>''!';){-    ",
"      ;>>>''>>'''!'>''!!';],^   ",
"      ;>>>''>''!!!'>''!!!;]]^   ",
"     ;>>>''>>'!!!!'>'!!!!';/^   ",
"    ;>>>>''>'!!!!!!>'!!!!!;^    ",
"    ;>>>''''!!!!!!!''!!!!!';    ",
"     ;>>'''!!!!!!!!!'!!!!!!';   ",
"     ;>>>'!!!!!!!'!!!!!!!!'>;   ",
"      ;;;''!!!!!''''!!!!'>;;    ",
"         ;;>>>''''''>>>>;;      "};
