/* XPM */
static char *result[] = {
/* columns rows colors chars-per-pixel */
"32 32 38 1 ",
"  c #313233",
". c #323234",
"X c #480033",
"o c #683836",
"O c #51005E",
"+ c #752D50",
"@ c #61017D",
"# c #444444",
"$ c #535455",
"% c #545456",
"& c #7A6843",
"* c #6F5365",
"= c #6D6D6E",
"- c #757677",
"; c #936129",
": c #EC591E",
"> c #8D7D56",
", c #CA9E73",
"< c #C2AE6D",
"1 c #77008B",
"2 c #7B008E",
"3 c #9E00A4",
"4 c #907382",
"5 c #DC0DFF",
"6 c #969798",
"7 c #B99BAA",
"8 c #B5B8B9",
"9 c #DDBD9C",
"0 c #DEC597",
"q c #DFD796",
"w c #EEDAB3",
"e c #D7DADB",
"r c #FDF0C5",
"t c #F2F0D1",
"y c #FFFBFC",
"u c #FCFDFF",
"i c white",
"p c None",
/* pixels */
"pppppppppppppppppppppppppppppppp",
"pppppppppppppppppppppppppppppppp",
"pppppppppppp>>>>>>>>>ppppppppppp",
"pppppppppp>><<qqqqq<<>>ppppppppp",
"ppppppppp><qqtqqqqqtqq<>pppppppp",
"pppppppp><qttqqqqqqq111O>ppppppp",
"ppppppp><qqqttttqt155511O>pppppp",
"ppppppp>qqqqqqqq<15555511>pppppp",
"pppppp><qqqqqqqq111qq<qqq<>ppppp",
"pppppp><q<qqqqqq1rrrrw<<<<>ppppp",
"pppppp><<qq<qq<qrrrrrrw9<<>ppppp",
"pppppp><<q<qqqq<rrrrrrww<>pppppp",
"pppp>>><q<&&qqq<rrrrrrrw&ppppppp",
"ppp>q<><<&rr,&<qrrrrrrrw&ppppppp",
"pp>qtq><<&w9rw&q;;;;0rrw&ppppppp",
"pp>qqq><qq&w,rwqr;y+;;rw&ppppppp",
"pp><q<><<q<&w,rqr0i+urr9&ppppppp",
"pp><<<<><<<<&9wrrrr::rw,&ppppppp",
"ppp><<<>><<<<99wrrrrrw9&pppppppp",
"pppp>>>pp><<<,99www99,&ppppppppp",
"pppppppppp>>>>.&&&&&&&pppppppppp",
"ppppppppp..#%%%====%w& ppppppppp",
"ppppppp..##=68%%%==86-$ pppppppp",
"pppppp.##%=8r68-$-6e86$ pppppppp",
"ppppp.#%%=-8w9  $$--$$ ppppppppp",
"pppp.##%=*446o******-- ppppppppp",
"pppp.#%==*474o@@22@28e- pppppppp",
"pppp.%%==o*4o@223323386 pppppppp",
"pppp.#%=%.oo@232333233Xppppppppp",
"ppppp.#%...o**oXo***47oppppppppp",
"pppppp.#..ppoooppo*444oppppppppp",
"ppppppp.ppppppppppoooopppppppppp"
};
