/* XPM */
static char * hero_left_xpm[] = {
"32 32 40 1",
" 	c None",
".	c #000000",
"+	c #8D7D56",
"@	c #C2AE6D",
"#	c #DFD796",
"$	c #F2F0D1",
"%	c #51005E",
"&	c #77008B",
"*	c #DC0DFF",
"=	c #EEDAB3",
"-	c #FDF0C5",
";	c #DDBD9C",
">	c #7A6843",
",	c #CA9E73",
"'	c #DEC597",
")	c #936129",
"!	c #752D50",
"~	c #FFFBFC",
"{	c #FCFDFF",
"]	c #FFFFFF",
"^	c #EC591E",
"/	c #323234",
"(	c #313233",
"_	c #545456",
":	c #6D6D6E",
"<	c #444444",
"[	c #535455",
"}	c #757677",
"|	c #969798",
"1	c #B5B8B9",
"2	c #D7DADB",
"3	c #6F5365",
"4	c #683836",
"5	c #B99BAA",
"6	c #7B008E",
"7	c #907382",
"8	c #565657",
"9	c #61017D",
"0	c #9E00A4",
"a	c #480033",
"                                ",
"                                ",
"            +++++++++           ",
"          ++@@#####@@++         ",
"         +@##$#####$##@+        ",
"        +%&&&#######$$#@+       ",
"       +%&&***&$#$$$$###@+      ",
"       +&&*****&@########+      ",
"      +@###@##&&&########@+     ",
"      +@@@@=----&######@#@+     ",
"      +@@;=------#@##@##@@+     ",
"       +@==------@####@#@@+     ",
"        >=-------@###>>@#@+++   ",
"        >=-------#@>,-->@@+@#+  ",
"        >=--'))))#>=-;=>@@+#$#+ ",
"        >=-))!~)-#=-,=>##@+###+ ",
"        >;--{!]'-#-,=>@#@@+@#@+ ",
"        >,=-^^----=;>@@@@+@@@@+ ",
"         >;=-----=;;@@@@++@@@+  ",
"          >,;;===;;,@@@+  +++   ",
"           >>>>>>>/++++         ",
"          (>=_::::::_</         ",
"         ([}|1::_12::_</        ",
"         ([|12|}(|1|::_</       ",
"          ([[}}(1==;::_<</      ",
"          (}}34551|,::__</      ",
"         (}216457|}(8::_<</     ",
"         (|1964373468::__</     ",
"          99969444608::__</     ",
"          43334a|3773::_</      ",
"           444  47773:_//       ",
"                 4444//         "};
