/* XPM */
static char * patrol3_xpm[] = {
"32 32 26 1",
" 	c None",
".	c #000000",
"+	c #555836",
"@	c #959963",
"#	c #BABE95",
"$	c #E4E6D1",
"%	c #FFFFFF",
"&	c #979799",
"*	c #B7B7BB",
"=	c #B1ABAD",
"-	c #E5E3E3",
";	c #CDCDBB",
">	c #2E1E22",
",	c #7D7375",
"'	c #736A64",
")	c #A9AA86",
"!	c #6E6B4B",
"~	c #635B4D",
"{	c #505133",
"]	c #323234",
"^	c #86826A",
"/	c #A09B90",
"(	c #545456",
"_	c #534721",
":	c #6E5E2C",
"<	c #767678",
"                                ",
"                                ",
"                                ",
"                                ",
"             +++++++            ",
"           ++@@###@@++          ",
"          +@##$$$$$##@+         ",
"         +@#$$$$$$$$$#@+        ",
"         +#$$$%%%%%$$$#+        ",
"        +@#$$%%%%%%%$$#@+       ",
"        +&##$%%%%%%%$###+       ",
"        &%&$$$%%%%%$$$$#+       ",
"        *%&%%%$%%%$%%%$#+       ",
"       &%%&==-%$$$%-==;#+       ",
"       &%%&>>,-%%%-,>>')+       ",
"       &%%&>>>=%%%=>>>>!+       ",
"       &%%&>>>=%$%=>>>>!+       ",
"       &%%&>>,-@#@-,>>~{    ]]  ",
"       &%%&^/-%%%%%-/^{+  ]](]  ",
"       &%%&+@+$@$@$+@+@@]](&(]  ",
"       &%%&#+++++++++#$%]*&(_]  ",
"       &%%&$%%%@@@%%%$#$]*_:_]  ",
"       &%%&@@@#%$%#@@@++]*_:(]  ",
"     ]](<<<(]%%###%%$#+ ]*&&(]  ",
"     ]&&&&&<]@#@@@#@@+  ]*&<_]  ",
"      ]](]]]$#++@++#$#+ ]*_:_]  ",
"      +@$#+@%$@+#+@$%@+ ]*_:(]  ",
"       +++ +#%#@@@#%#+   ]&:]   ",
"           ++@+++++#%+   ](&]   ",
"           +@#@+ +@$#+    ]]    ",
"            +++  @%%$+          ",
"                 @%%%+          "};
