/* XPM */
static char * 6_xpm[] = {
"32 32 63 1",
" 	c None",
".	c #000000",
"+	c #28282B",
"@	c #000000",
"#	c #000000",
"$	c #000000",
"%	c #000000",
"&	c #000000",
"*	c #000000",
"=	c #000000",
"-	c #000000",
";	c #000000",
">	c #000000",
",	c #000000",
"'	c #000000",
")	c #000000",
"!	c #000000",
"~	c #000000",
"{	c #000000",
"]	c #000000",
"^	c #000000",
"/	c #000000",
"(	c #000000",
"_	c #000000",
":	c #000000",
"<	c #000000",
"[	c #000000",
"}	c #000000",
"|	c #000000",
"1	c #000000",
"2	c #000000",
"3	c #000000",
"4	c #000000",
"5	c #000000",
"6	c #000000",
"7	c #000000",
"8	c #000000",
"9	c #000000",
"0	c #000000",
"a	c #000000",
"b	c #000000",
"c	c #000000",
"d	c #000000",
"e	c #000000",
"f	c #000000",
"g	c #000000",
"h	c #000000",
"i	c #000000",
"j	c #282828",
"k	c #000000",
"l	c #2F2F2F",
"m	c #303032",
"n	c #2C2C2C",
"o	c #000000",
"p	c #323232",
"q	c #313131",
"r	c #716D75",
"s	c #434343",
"t	c #85828B",
"u	c #313133",
"v	c #9C98A2",
"w	c #5D595F",
"x	c #FFFFFF",
"               rs               ",
"               rs               ",
"               tu               ",
"               vs               ",
"               vw               ",
"              rvws              ",
"              vvww              ",
"             wrvwsu             ",
"             uwrssu             ",
"             suwsuu             ",
"  tu    tu  swsuuswu            ",
"  rs    rs  stvtrwsu            ",
"  ws    ws   usssuu             ",
"  ws    ws   svtrsu             ",
"  ws    ws    uuuu              ",
"ttwswrttwswrttuwsu              ",
"sswsussswsusssstwu              ",
"  ws    ws    stwu              ",
"  ws    ws    stwu              ",
"  ws    ws    stwu              ",
"  ws    ws    stwu              ",
"ttwswrttwswrttstwu              ",
"sswsussswsusssstwu              ",
"  ws    ws    stwu              ",
"  ws    ws    stwu              ",
"  ws    ws    srwu              ",
"  sum   sum   swwu              ",
"               uuq              ",
"                                ",
"                                ",
"                                ",
"                                "};
