/* XPM */
static char * inner_xpm[] = {
"32 32 31 1",
" 	c None",
".	c #000000",
"+	c #000000",
"@	c #000000",
"#	c #000000",
"$	c #000000",
"%	c #000000",
"&	c #000000",
"*	c #000000",
"=	c #000000",
"-	c #000000",
";	c #000000",
">	c #000000",
",	c #514D54",
"'	c #4D4950",
")	c #49464C",
"!	c #494349",
"~	c #6C686F",
"{	c #85828B",
"]	c #94919A",
"^	c #AEACB6",
"/	c #A09EA7",
"(	c #C8C8C8",
"_	c #918F98",
":	c #77737B",
"<	c #524E53",
"[	c #5D595F",
"}	c #77747C",
"|	c #7B777E",
"1	c #BAB9BE",
"2	c #FFFFFF",
"             ~~~~~~             ",
"          ~{{]]]]]{~~~          ",
"        ~{]^^^^^^//]]{~~        ",
"       {/((^^^^^^^//]]{{~       ",
"      {^((^^((((^(^/]]]{{~      ",
"     {](((((^__{{{_/^/]{{:<     ",
"     {/((^__{_{//{{__{/]{:<     ",
"     {/(__{_:{{//{{_{{{_]:<     ",
"     {/_{_{{://////{{{{_{:<     ",
"     {__{{{{{//////_{:{{{{<     ",
"     ~__{{{{{{{//{{{{{{{{:<     ",
"     ~_{{{{{_{{//{{{{{{_{~<     ",
"     ~_{{_{__{{//:{{{{{{{:<     ",
"     ~_{{{{_{{{{{{{{{{{{{~<     ",
"     ~_{::{{{{{{{{{{{{{{{:<     ",
"     ~_{:{~~~[[~~[~}[~{{{~<     ",
"     ~_{{{~[~[~[~{[[{~{{{~<     ",
"     ~_{{{{{{{{{_{{{{:{{{~<     ",
"   ~~~{{~~[[~~[~}[~~[[~~:~<<<   ",
"   ~]~_{{{{_{{{{{{{{{{{{:~<|<   ",
"   ~^~_{[~[~[~{[[{[~[~[~:~<|<   ",
"   ~1~{{{{{{{{:{{{:{::{::~<|<   ",
"   ~1~_{~~[[~~~~[[~~[~}[:~<|<   ",
"   ~(~{:::::::~::::::::::~<|<   ",
"   ~1~{::~:::~~:~~:~:~~~~~<]<   ",
"   ~(^//////////////////////<   ",
"   ~((((((1(((1(11(1^1^^^^^/<   ",
"   <^_________{{__{{{_{{_{{{<   ",
"   <_{~{~~~{~{~~~~~~~~~~~~~~<   ",
"   <<<<<<<<<<<<<<<<<<<<<<<<<<   ",
"                                ",
"                                "};
