/* XPM */
static char * door_opened_xpm[] = {
"32 32 4 1",
" 	c None",
".	c #FF0000",
"+	c #AB4040",
"@	c #FFEE00",
"                                ",
"                                ",
"             .......            ",
"          ....  .  ....         ",
"         ...    .    ...        ",
"       ..  . ....... .  ..      ",
"      ..   ...  .  ...   ..     ",
"     ...  +    + +    +  ...    ",
"     .  .. ++  + +  ++ ..  .    ",
"    .   .  +  .   .  +  .   .   ",
"   ..  ..     .   .     ..  ..  ",
"   ...........................  ",
"   .  . .   ..  .  ..   . .  .  ",
"  .. .. .   .   .   .   . .. .. ",
"  .  .   + +  ++ ++  + +   .  . ",
"  .  . + +++  + @ +  +++ + .  . ",
"  .... +  + ++ @@@ ++ +  + .... ",
"  .  . + +++  + @ +  +++ + .  . ",
"  .  .   + +  ++ ++  + +   .  . ",
"  .. .. .   .   .   .   . .. .. ",
"   .  . .   ..  .  ..   . .  .  ",
"   ...........................  ",
"   ..  ..     .   .     ..  ..  ",
"    .   .  +  .   .  +  .   .   ",
"     .  .. ++  + +  ++ ..  .    ",
"     ...  +    + +    +  ...    ",
"      ..   ...  .  ...   ..     ",
"       ..  . ....... .  ..      ",
"         ...    .    ...        ",
"          ....  .  ....         ",
"             .......            ",
"                                "};
