/* XPM */
static char * 5_xpm[] = {
"32 32 62 1",
" 	c None",
".	c #000000",
"+	c #28282B",
"@	c #000000",
"#	c #000000",
"$	c #000000",
"%	c #000000",
"&	c #000000",
"*	c #000000",
"=	c #000000",
"-	c #000000",
";	c #000000",
">	c #000000",
",	c #000000",
"'	c #000000",
")	c #000000",
"!	c #000000",
"~	c #000000",
"{	c #000000",
"]	c #000000",
"^	c #000000",
"/	c #000000",
"(	c #000000",
"_	c #000000",
":	c #000000",
"<	c #000000",
"[	c #000000",
"}	c #000000",
"|	c #000000",
"1	c #000000",
"2	c #000000",
"3	c #000000",
"4	c #000000",
"5	c #000000",
"6	c #000000",
"7	c #000000",
"8	c #000000",
"9	c #000000",
"0	c #000000",
"a	c #000000",
"b	c #2A2A2A",
"c	c #000000",
"d	c #000000",
"e	c #303031",
"f	c #2C2C2C",
"g	c #2C2C2C",
"h	c #2F2F31",
"i	c #2C2C2F",
"j	c #313131",
"k	c #2F2F2F",
"l	c #303032",
"m	c #323232",
"n	c #313133",
"o	c #000000",
"p	c #2E2E32",
"q	c #716D75",
"r	c #434343",
"s	c #85828B",
"t	c #313133",
"u	c #9C98A2",
"v	c #5D595F",
"w	c #FFFFFF",
"               qr               ",
"               qr               ",
"               st               ",
"               ur               ",
"               uv               ",
"              quvr              ",
"              uuvv              ",
"             vquvrt             ",
"             tvqrrt             ",
"             rtvrtt             ",
"            rvrttrvt  st    st  ",
"            rsusqvrt  qr    qr  ",
"             trrrtt   vr    vr  ",
"             rusqrt   vr    vr  ",
"              tttt    vr    vr  ",
"              tvrtvqssvrvqssvrvq",
"              rsvttrrrvrtrrrvrtr",
"              rsvt    vr    vr  ",
"              rsvt    vr    vr  ",
"              rsvt    vr    vr  ",
"              rsvt    vr    vr  ",
"              rsvtvqssvrvqssvrvq",
"              rsvttrrrvrtrrrvrtr",
"              rsvt    vr    vr  ",
"              rsvt    vr    vr  ",
"              rqvt    vr    vr  ",
"              rvvte   rth   rtl ",
"               ttn              ",
"                                ",
"                                ",
"                                ",
"                                "};
