/* XPM */
static char * 4_xpm[] = {
"32 32 54 1",
" 	c None",
".	c #000000",
"+	c #000000",
"@	c #000000",
"#	c #000000",
"$	c #000000",
"%	c #000000",
"&	c #000000",
"*	c #000000",
"=	c #000000",
"-	c #000000",
";	c #000000",
">	c #000000",
",	c #000000",
"'	c #000000",
")	c #000000",
"!	c #000000",
"~	c #000000",
"{	c #000000",
"]	c #000000",
"^	c #000000",
"/	c #000000",
"(	c #000000",
"_	c #000000",
":	c #000000",
"<	c #000000",
"[	c #000000",
"}	c #000000",
"|	c #272727",
"1	c #000000",
"2	c #000000",
"3	c #000000",
"4	c #000000",
"5	c #2F2F2F",
"6	c #303032",
"7	c #2D2D30",
"8	c #2E2E2F",
"9	c #292929",
"0	c #27272A",
"a	c #2F2F31",
"b	c #2B2B2E",
"c	c #2C2C2F",
"d	c #323232",
"e	c #2E2E32",
"f	c #2F2F31",
"g	c #000000",
"h	c #000000",
"i	c #85828B",
"j	c #313133",
"k	c #9C98A2",
"l	c #434343",
"m	c #5D595F",
"n	c #716D75",
"o	c #FFFFFF",
"                                ",
"                                ",
"               ij               ",
"               kl               ",
"               km               ",
"              nkml              ",
"              kkmm              ",
"             mnkmlj             ",
"             jmnllj             ",
"             ljmljj             ",
"  ij    ij  lmljjlmj  ij    ij  ",
"  nl    nl  likinmlj  nl    nl  ",
"  ml    ml   jllljj   ml    ml  ",
"  ml    ml   lkinlj   ml    ml  ",
"  ml    ml    jjjj    ml    ml  ",
"iimlmniimlmniijmljmniimlmniimlmn",
"llmljlllmljllllimjjlllmljlllmljl",
"  ml    ml    limj    ml    ml  ",
"  ml    ml    limj    ml    ml  ",
"  ml    ml    limj    ml    ml  ",
"  ml    ml    limj    ml    ml  ",
"iimlmniimlmniilimjmniimlmniimlmn",
"llmljlllmljllllimjjlllmljlllmljl",
"  ml    ml    limj    ml    ml  ",
"  ml    ml    limj    ml    ml  ",
"  ml    ml    lnmj    ml    ml  ",
"  lj6   lj6   lmmj8   lja   lj6 ",
"               jjf              ",
"                                ",
"                                ",
"                                ",
"                                "};
