/* XPM */
static char * 2_xpm[] = {
"32 32 59 1",
" 	c None",
".	c #000000",
"+	c #000000",
"@	c #000000",
"#	c #000000",
"$	c #000000",
"%	c #000000",
"&	c #000000",
"*	c #000000",
"=	c #000000",
"-	c #000000",
";	c #000000",
">	c #000000",
",	c #000000",
"'	c #000000",
")	c #000000",
"!	c #000000",
"~	c #000000",
"{	c #000000",
"]	c #000000",
"^	c #000000",
"/	c #000000",
"(	c #000000",
"_	c #000000",
":	c #000000",
"<	c #000000",
"[	c #000000",
"}	c #000000",
"|	c #000000",
"1	c #000000",
"2	c #000000",
"3	c #000000",
"4	c #000000",
"5	c #232326",
"6	c #000000",
"7	c #000000",
"8	c #000000",
"9	c #2D2D2E",
"0	c #252527",
"a	c #282828",
"b	c #2F2F31",
"c	c #2C2C2F",
"d	c #313131",
"e	c #2F2F2F",
"f	c #303032",
"g	c #2E2E32",
"h	c #2E2E30",
"i	c #000000",
"j	c #2C2C2C",
"k	c #000000",
"l	c #323232",
"m	c #28282B",
"n	c #85828B",
"o	c #313133",
"p	c #9C98A2",
"q	c #434343",
"r	c #5D595F",
"s	c #716D75",
"t	c #FFFFFF",
"                                ",
"                                ",
"               no               ",
"               pq               ",
"               pr               ",
"              sprq              ",
"              pprr              ",
"             rsprqo             ",
"             orsqqo             ",
"             qorqoo             ",
"            qrqooqro  no    no  ",
"            qnpnsrqo  sq    sq  ",
"             oqqqoo   rq    rq  ",
"             qpnoqo   rq    rq  ",
"              osqo    rq    rq  ",
"              orqorsnnrqrsnnrqrs",
"              qrqooqqqrqoqqqrqoq",
"              qrqo    rq    rq  ",
"              qsqo    rq    rq  ",
"              qsqo    rq    rq  ",
"              qnoo    rq    rq  ",
"              qsqorsnnrqrsnnrqrs",
"              qrqooqqqrqoqqqrqoq",
"              qrqo    rq    rq  ",
"              qrqo    rq    rq  ",
"              qsqo    rq    rq  ",
"              qsqo9   qob   qof ",
"               noh              ",
"               sq               ",
"               rq               ",
"               rq               ",
"               rq               "};
