/* XPM */
static char * 3_xpm[] = {
"32 32 62 1",
" 	c None",
".	c #000000",
"+	c #000000",
"@	c #000000",
"#	c #000000",
"$	c #000000",
"%	c #000000",
"&	c #000000",
"*	c #000000",
"=	c #000000",
"-	c #000000",
";	c #000000",
">	c #000000",
",	c #000000",
"'	c #000000",
")	c #000000",
"!	c #000000",
"~	c #000000",
"{	c #000000",
"]	c #000000",
"^	c #000000",
"/	c #000000",
"(	c #000000",
"_	c #000000",
":	c #000000",
"<	c #000000",
"[	c #000000",
"}	c #000000",
"|	c #000000",
"1	c #000000",
"2	c #000000",
"3	c #000000",
"4	c #000000",
"5	c #000000",
"6	c #000000",
"7	c #000000",
"8	c #000000",
"9	c #000000",
"0	c #000000",
"a	c #000000",
"b	c #000000",
"c	c #000000",
"d	c #000000",
"e	c #222224",
"f	c #000000",
"g	c #000000",
"h	c #2F2F2F",
"i	c #303032",
"j	c #2D2D2D",
"k	c #242427",
"l	c #000000",
"m	c #323232",
"n	c #2E2E2E",
"o	c #2E2E2F",
"p	c #28282B",
"q	c #85828B",
"r	c #313133",
"s	c #9C98A2",
"t	c #434343",
"u	c #5D595F",
"v	c #716D75",
"w	c #FFFFFF",
"                                ",
"                                ",
"               qr               ",
"               st               ",
"               su               ",
"              vsut              ",
"              ssuu              ",
"             uvsutr             ",
"             ruvttr             ",
"             trutrr             ",
"  qr    qr  tutrrtur            ",
"  vt    vt  tqsqvutr            ",
"  ut    ut   rtttrr             ",
"  ut    ut   tsqrtr             ",
"  ut    ut    rvtr              ",
"qqutuvqqutuvqqrutr              ",
"ttutrtttutrttttutr              ",
"  ut    ut    tutr              ",
"  ut    ut    tvtr              ",
"  ut    ut    tvtr              ",
"  ut    ut    tqrr              ",
"qqutuvqqutuvqqtvtr              ",
"ttutrtttutrttttutr              ",
"  ut    ut    tutr              ",
"  ut    ut    tutr              ",
"  ut    ut    tvtr              ",
"  tri   tri   tvtr              ",
"               qro              ",
"               vt               ",
"               ut               ",
"               ut               ",
"               ut               "};
