/* XPM */
static char * 1_xpm[] = {
"32 32 59 1",
" 	c None",
".	c #000000",
"+	c #28282B",
"@	c #000000",
"#	c #000000",
"$	c #000000",
"%	c #000000",
"&	c #000000",
"*	c #000000",
"=	c #000000",
"-	c #000000",
";	c #000000",
">	c #000000",
",	c #000000",
"'	c #000000",
")	c #000000",
"!	c #000000",
"~	c #000000",
"{	c #000000",
"]	c #000000",
"^	c #000000",
"/	c #000000",
"(	c #000000",
"_	c #000000",
":	c #000000",
"<	c #000000",
"[	c #000000",
"}	c #000000",
"|	c #000000",
"1	c #000000",
"2	c #000000",
"3	c #000000",
"4	c #000000",
"5	c #000000",
"6	c #000000",
"7	c #000000",
"8	c #000000",
"9	c #000000",
"0	c #000000",
"a	c #000000",
"b	c #000000",
"c	c #262626",
"d	c #000000",
"e	c #000000",
"f	c #000000",
"g	c #282828",
"h	c #000000",
"i	c #000000",
"j	c #323232",
"k	c #2E2E30",
"l	c #000000",
"m	c #000000",
"n	c #716D75",
"o	c #434343",
"p	c #85828B",
"q	c #313133",
"r	c #9C98A2",
"s	c #5D595F",
"t	c #FFFFFF",
"               no               ",
"               no               ",
"               pq               ",
"               ro               ",
"               rs               ",
"              nrso              ",
"              rrss              ",
"             snrsoq             ",
"             qsnooq             ",
"             oqsoqq             ",
"            osoqqosq            ",
"            oprpnsoq            ",
"             qoooqq             ",
"             orpqoq             ",
"              qnoq              ",
"              qsoq              ",
"              osoq              ",
"              osoq              ",
"              onoq              ",
"              onoq              ",
"              opqq              ",
"              onoq              ",
"              osoq              ",
"              osoq              ",
"              osoq              ",
"              onoq              ",
"              onoq              ",
"               pqk              ",
"               no               ",
"               so               ",
"               so               ",
"               so               "};
