/* XPM */
static char * collect7_xpm[] = {
"32 32 13 1",
" 	c None",
".	c #31313E",
"+	c #613025",
"@	c #54242E",
"#	c #586B90",
"$	c #A9C9CA",
"%	c #B16145",
"&	c #8F5030",
"*	c #973C23",
"=	c #748DA4",
"-	c #E43C3C",
";	c #AE424A",
">	c #523745",
"                                ",
"                                ",
"                                ",
"                                ",
"                                ",
"             ......             ",
"             .+++@.             ",
"             .+++@.             ",
"           ..........           ",
"           .#$%&&*=#.           ",
"           .=$%&**==.           ",
"           .#======#.           ",
"            .=$$===.            ",
"            .=$$===.            ",
"            .=$$===.            ",
"            .=--;>=.            ",
"           .#=--;>=#.           ",
"           .=>-->>>=.           ",
"          .#=>-->>>=#.          ",
"         .#=>-->>>>>=#.         ",
"         .=>>-->>;>>>=.         ",
"         .=>--->>>>>>=.         ",
"         .=>--->>;;>>=.         ",
"         .=>>-->>;;>>=.         ",
"         .#=>--->>>>=#.         ",
"          .#========#.          ",
"           ..........           ",
"                                ",
"                                ",
"                                ",
"                                ",
"                                "};
