/* XPM */
static char * hero_down_xpm[] = {
"32 32 40 1",
" 	c None",
".	c #000000",
"+	c #8D7D56",
"@	c #C2AE6D",
"#	c #DFD796",
"$	c #F2F0D1",
"%	c #77008B",
"&	c #DC0DFF",
"*	c #51005E",
"=	c #EEDAB3",
"-	c #FDF0C5",
";	c #7A6843",
">	c #DDBD9C",
",	c #CA9E73",
"'	c #936129",
")	c #DEC597",
"!	c #FFFBFC",
"~	c #752D50",
"{	c #D3B58A",
"]	c #FFFFFF",
"^	c #FCFDFF",
"/	c #EC591E",
"(	c #323234",
"_	c #313233",
":	c #444444",
"<	c #757677",
"[	c #B5B8B9",
"}	c #969798",
"|	c #545456",
"1	c #6D6D6E",
"2	c #535455",
"3	c #683836",
"4	c #6F5365",
"5	c #480033",
"6	c #B99BAA",
"7	c #61017D",
"8	c #7B008E",
"9	c #907382",
"0	c #9E00A4",
"a	c #D7DADB",
"                                ",
"                                ",
"            +++++++++           ",
"          ++@@#####@@++         ",
"         +@##$#####$#@@+        ",
"        +@#$$#%&&&%#$$#@+       ",
"       +@###%%&&&&&%%###@+      ",
"       +###%%&&&&&&&%%###+      ",
"      +@#@**%#@###@#%**@#@+     ",
"      +###*@=--@@@--=@*###+     ",
"    ;;@##@==---------==@##@;;   ",
"   ;>=,;#>=-----------=>#;,=>;  ",
"    ;>=>@>=-----------=>@>=>;   ",
"     ;,>@>=-----------=>@>,;    ",
"      ;,@'''')-----)''''@,;     ",
"       ;;,'!~''---''~!',;;      ",
"        ;,{]~^-----^~]{,;       ",
"         ;>=//-----//=>;        ",
"        ((_>=-------=>_((       ",
"       _::(;,>=====>,;(::_      ",
"      _<[:::;;;;;;;;;:::[<_     ",
"      _>}}||||1===1||||=-2_     ",
"     34<<,_||1[}<}[1||;>=,;     ",
"     344_;_2}[}<<<}[}2;=-<_(    ",
"     (33((542<<222<<2436[}_(    ",
"     (|:(578444<<<44477669_|(   ",
"    (:|((58007<[a[<78879943|(   ",
"    (||(::50080}[}0808533311(   ",
"    (|(((::_}8000087<_(::(11(   ",
"     (   ((_aa[_534443 (((1(    ",
"           34994  333     (     ",
"           39664                "};
